<svg xmlns="http://www.w3.org/2000/svg" viewBox="0 0 1024 1024" width="200" height="200">
  <g fill="#000000">
    <path d="M512 24.448C241.024 24.448 24.448 241.024 24.448 512S241.024 999.552 512 999.552 999.552 782.976 999.552 512 782.976 24.448 512 24.448zm0 948.16c-5.888 0-11.584-.512-17.152-1.408-4.096-.576-8.416-1.536-12.672-2.72-8.384-2.208-16.64-5.344-24.704-9.344s-15.36-8.864-22.272-14.944-13.504-12.544-19.328-20.16-11.136-15.68-15.68-25.216-7.84-20.288-9.792-31.552-2.368-21.952-2.368-33.824c0-42.944 16.384-81.984 43.52-112.32s64.064-48.576 104.256-55.808c5.856-26.4 13.312-52.096 22.4-76.352-46.24-9.728-94.496-14.848-142.56-14.848-5.408 0-10.752 0-16 0C231.456 74.752 290.56 64 352 64c24.576 0 49.024 3.008 72.8 8.96 7.872-4.8 16.512-9.056 25.696-12.544 9.216-3.52 18.688-6.304 28.352-8.416 8.64-1.984 17.6-3.136 26.72-3.136s18.08 1.152 26.72 3.136c9.664 2.112 19.136 4.896 28.352 8.416 9.184 3.488 17.824 7.744 25.696 12.544C572.992 67.008 597.44 64 624 64c61.44 0 120.544 10.752 176 31.68 3.264.448 6.496.992 9.696 1.568 2.912 7.552 5.12 15.36 6.624 23.392s2.208 16.064 3.008 24c1.056 10.72 1.536 21.856 1.536 33.344 0 35.008-4.096 69.952-12.032 104.032 8.224 2.496 16.32 5.632 24.288 9.376s15.2 7.968 22.24 12.672 13.472 10.688 18.944 17.312 10.464 14.784 14.688 22.688 7.36 16.16 9.344 24.96c1.536 6.56 2.752 13.184 3.648 19.808-5.856 2.272-11.904 4.32-17.984 6.144-12.896 3.76-25.856 7.872-38.88 12.352-5.248 2.048-10.4 4.352-15.52 6.848C561.568 928.192 539.36 952 512 952z"/>
  </g>
</svg>
